<?xml version="1.0" encoding="UTF-8" standalone="no"?>
<!-- Created with Inkscape (http://www.inkscape.org/) -->

<svg
   width="228.58592mm"
   height="102.09595mm"
   viewBox="0 0 228.58592 102.09596"
   version="1.1"
   id="svg1"
   xml:space="preserve"
   inkscape:export-filename="logoCoral.png"
   inkscape:export-xdpi="96"
   inkscape:export-ydpi="96"
   xmlns:inkscape="http://www.inkscape.org/namespaces/inkscape"
   xmlns:sodipodi="http://sodipodi.sourceforge.net/DTD/sodipodi-0.dtd"
   xmlns="http://www.w3.org/2000/svg"
   xmlns:svg="http://www.w3.org/2000/svg"><sodipodi:namedview
     id="namedview1"
     pagecolor="#ffffff"
     bordercolor="#000000"
     borderopacity="0.25"
     inkscape:showpageshadow="2"
     inkscape:pageopacity="0.0"
     inkscape:pagecheckerboard="0"
     inkscape:deskcolor="#d1d1d1"
     inkscape:document-units="mm"><inkscape:page
       x="0"
       y="0"
       width="228.58592"
       height="102.09596"
       id="page2"
       margin="0"
       bleed="0" /></sodipodi:namedview><defs
     id="defs1" /><g
     inkscape:label="Capa 1"
     inkscape:groupmode="layer"
     id="layer1"
     transform="translate(249.7837,-47.298566)"><path
       style="fill:#fe8873;stroke:none"
       d="m -238.75543,128.75979 c 1.20181,-1.30137 1.36369,-3.09943 1.81207,-4.76249 1.03296,-3.83133 1.56045,-7.78435 2.52007,-11.64167 3.87021,-15.556869 6.50443,-31.386709 9.07525,-47.095831 0.75074,-4.58743 1.82416,-9.974245 0.99688,-14.627627 -0.29651,-1.667873 -2.95788,-3.920901 -4.80558,-3.192957 -1.25505,0.494446 -1.5517,3.702164 -1.82309,4.879676 -1.10158,4.779423 -2.47182,9.606745 -3.98406,14.263825 -2.32954,7.174061 -3.57668,14.618195 -5.56441,21.874475 -2.64666,9.66168 -5.58256,19.544679 -7.22092,29.454689 -1.02992,6.22967 -4.48458,12.76666 0.93686,18.08374 1.75481,1.72102 4.51403,0.83857 6.46943,0.1717 5.51669,-1.88146 10.8908,-4.2438 16.40416,-6.16526 1.69281,-0.58995 5.10008,-1.06983 6.16157,-2.66849 0.7908,-1.19099 -1.12399,-2.62666 -2.18241,-2.65686 -2.43428,-0.0694 -6.16983,1.42049 -8.47707,2.21405 -3.27173,1.12528 -6.84605,1.84029 -10.31875,1.86903 M -76.036685,106.5348 c -1.11481,0.15025 -4.27579,1.72203 -5.12139,0.88725 -0.7247,-0.71543 0.13357,-2.69105 0.32745,-3.53309 0.85542,-3.71519 2.32762,-11.533789 -3.94118,-8.635899 -0.86342,0.39913 -1.84747,0.61574 -2.64094,1.14897 -3.58091,2.40646 -4.15795,7.166679 -1.99376,10.661739 0.6699,1.08185 2.53613,2.00017 2.80548,3.1999 0.57375,2.55553 -2.25619,7.44297 -3.25442,9.76488 -0.71846,1.67118 -2.70297,7.63817 -4.96767,7.41934 -2.72306,-0.2631 -4.10386,-5.21357 -4.0349,-7.41934 0.2272,-7.2682 3.49788,-14.04727 6.83324,-20.372919 1.13163,-2.14619 4.35452,-3.00716 4.32417,-5.55625 -0.042,-3.52726 -6.24196,-4.33068 -8.70878,-3.02372 -4.140085,2.19349 -6.500275,8.989839 -8.202305,13.077889 -3.39379,-3.92194 -6.70786,-6.287229 -11.37708,-8.466669 6.75151,-6.75151 12.83621,-13.80111 13.67645,-23.812709 0.66941,-7.976079 -4.7155,-14.826032 -13.14729,-13.407789 -3.3999,0.571881 -6.72877,2.698866 -9.78958,4.224355 -1.07216,0.53435 -2.64079,0.725618 -3.55615,1.493384 -1.42433,1.194678 -2.20351,2.917506 -3.85218,4.077141 -1.20431,0.847074 -5.72621,3.230487 -5.54645,4.907662 0.1474,1.375271 3.9117,1.95479 5.01728,2.14504 l -6.61458,33.072915 c -3.8003,-0.52892 -5.63679,4.98719 -8.20596,7.05393 -0.81126,0.65259 -2.67108,2.55206 -3.69785,1.32372 -0.90611,-1.08397 -0.42783,-2.87054 -0.79619,-4.14432 0.85837,-0.78277 0.48979,-2.59107 0.64166,-3.70416 0.4604,-3.37439 1.27823,-6.66048 1.86126,-10.009259 0.64582,-3.70941 1.4693,-7.50728 2.35859,-11.15741 0.42586,-1.74792 1.50559,-4.29891 1.14918,-6.08154 -0.20059,-1.00328 -1.03327,-1.76785 -2.04296,-1.927 -2.93373,-0.462405 -6.75831,-0.443301 -9.78856,-0.457916 -5.29989,-0.02555 -6.52696,1.940536 -10.17687,5.318196 -0.99423,0.92007 -2.31755,1.49076 -3.22175,2.50088 -2.50916,2.8031 -5.20612,8.89173 -5.94006,12.55363 -0.40002,1.995819 -2.00015,7.722779 -0.24049,9.260419 -0.39183,3.15349 2.48256,5.65734 4.49792,7.67291 -2.60779,1.12545 -4.607,3.44542 -6.87917,5.12529 -0.83701,0.61882 -2.05605,1.82277 -3.17112,1.79286 -1.20044,-0.0322 -1.76362,-1.46493 -2.0691,-2.42023 -0.72867,-2.27882 0.17595,-5.88433 0.6539,-8.20208 1.39447,-6.76219 2.75782,-13.695319 4.51609,-20.372919 0.73928,-2.80766 2.82597,-6.89322 2.57622,-9.7855 -0.15683,-1.81616 -2.84799,-2.52785 -4.35706,-2.54538 -2.32669,-0.027 -2.69244,4.79933 -3.43121,6.51005 -3.11073,7.20337 -5.63614,14.578999 -7.44834,22.224999 -0.53831,2.27124 -0.80084,4.62265 -1.40968,6.87508 -0.16588,0.61367 -0.66158,1.78602 -1.5234,1.4399 -0.98347,-0.39499 -0.94153,-2.16523 -0.87011,-2.99964 0.24364,-2.84642 0.61354,-5.65442 0.93667,-8.49034 0.70947,-6.226529 2.54991,-12.374929 3.716,-18.520839 0.34182,-1.80153 1.91444,-4.8631 0.60899,-6.55415 -1.02242,-1.324403 -2.70153,-0.61937 -4.07368,-0.6582 -3.53463,-0.10001 -7.00283,-1.123491 -10.58334,-0.67615 -3.37292,0.42141 -4.86454,3.41686 -7.14395,5.46133 -6.31133,5.66083 -9.12076,13.52278 -9.05259,22.006339 0.0458,5.6941 4.57221,11.11289 10.37571,11.1125 2.29379,-1.6e-4 3.96532,-1.13462 6.08542,-1.85208 0.89893,3.79513 3.22287,7.44347 7.40833,7.89157 1.40675,0.1506 2.91334,-0.67089 4.20945,-0.4512 1.29669,0.21982 1.99141,2.23712 2.75669,3.13908 1.30988,1.54383 3.17105,2.54009 5.20469,2.63908 6.03324,0.29369 10.92449,-3.53466 15.10249,-7.53367 1.05506,-1.00986 1.78393,-2.5513 2.9445,-3.40876 1.1492,-0.84906 4.31854,-1.56386 5.76061,-1.88679 1.63546,-0.36624 3.62081,4.99663 5.0424,6.05643 5.22516,3.89542 13.34425,-0.58754 15.6,-5.91658 h 0.26458 c -1.42278,6.00671 -4.06826,12.57284 -4.28355,18.78542 -0.0451,1.30142 0.50182,2.44704 0.57939,3.70416 1.64425,1.32805 4.31164,1.73801 6.35,1.05834 0.0142,1.51583 -1.47255,2.98329 -1.07773,4.49791 0.74291,2.85002 5.86088,6.01123 8.63733,4.25355 2.44273,-1.54641 3.8606,-4.98135 5.77143,-7.14029 4.54375,-5.1337 8.16152,-10.66946 11.82806,-16.42784 1.7921,-2.81454 4.21188,-5.69413 5.00341,-8.99583 h 0.26458 c -0.8504,4.58053 -0.15768,10.51186 2.73565,14.28648 3.59856,4.69466 12.035245,4.33612 16.190635,0.39014 2.64325,-2.51005 4.73463,-7.73838 5.59015,-11.23704 0.52565,-2.14966 0.95367,-6.19674 2.60683,-7.78848 1.01441,-0.97671 3.27887,-1.29029 4.62674,-1.47193 -1.08097,3.84671 -1.37716,7.94935 -1.85065,11.90625 -0.26023,2.17486 -0.67455,4.47107 -0.005,6.61458 0.79064,2.52999 2.0498,5.77054 3.99672,7.62392 4.26604,4.06109 10.35302,2.06657 13.94187,-1.8278 3.42319,-3.7146 5.13253,-10.40802 6.93551,-15.05654 1.68806,2.96618 2.45387,6.06036 4.85497,8.6451 4.322359,4.65297 13.193378,5.54886 18.163778,1.35251 3.145415,-2.65558 5.998648,-5.96633 8.458899,-9.24878 0.972792,-1.29789 1.978755,-3.43339 -0.0039,-4.40053 -1.994807,-0.9731 -6.217401,4.25357 -7.650873,5.48173 -1.842329,1.57845 -4.736468,4.73805 -7.418749,4.42156 -1.902225,-0.22444 -3.381334,-1.72871 -5.027083,-2.54742 1.373382,-2.93819 3.363086,-5.56844 4.813126,-8.46667 2.122206,-4.2417 3.717797,-8.7264 5.835529,-12.96458 1.428999,-2.859819 3.995234,-7.791689 2.99494,-11.084739 -0.850772,-2.8008 -8.504132,-2.25626 -10.468595,-1.27718 -7.148481,3.56275 -10.031882,11.568279 -12.700002,18.447339 h -0.26458 c 0,-1.60142 0.63257,-4.94977 -0.46099,-6.23527 -1.79351,-2.108299 -7.47674,0.76031 -9.32859,1.73735 0.64742,-3.759929 2.98473,-7.465869 4.18903,-11.112499 2.48619,-7.52819 4.53842,-15.198668 6.93102,-22.754165 1.06748,-3.370919 4.159827,-10.121717 1.55729,-13.379012 -0.97816,-1.224247 -3.48301,-0.400751 -4.73984,-0.07369 -1.99596,0.519396 -5.53994,1.155565 -6.97513,2.70891 -0.95629,1.035015 -1.37151,2.612099 -1.96273,3.864622 -4.93496,10.454739 -8.81983,21.755505 -11.11943,33.072915 -0.70102,3.45008 -1.87385,7.046189 -1.90313,10.583329 m 22.75417,-45.243744 c 0.42297,5.359024 -1.82583,10.766752 -3.32688,15.87479 -2.59127,8.817955 -5.09863,17.580915 -8.31479,26.193954 -1.10106,-3.076 0.70995,-8.863329 1.57729,-11.906249 2.00802,-7.04482 2.78984,-14.385261 4.81008,-21.431245 0.82367,-2.872709 1.74214,-8.646355 5.2543,-8.73125 m -73.289595,33.602085 c 0.90638,-6.1649 2.05976,-12.31635 3.17807,-18.445291 0.51255,-2.80905 0.45056,-6.431455 1.66017,-9.037077 1.12819,-2.43023 6.88388,-5.174022 9.44905,-3.918947 3.46009,1.69292 2.56616,6.774764 1.56116,9.70548 -1.98516,5.789052 -6.49587,11.100405 -10.23666,15.874995 -1.62718,2.07686 -3.21673,4.57836 -5.61179,5.82084 m -51.06428,-27.404385 c -1.17315,0.152332 -3.13322,-0.01295 -4.04081,0.876836 -1.10496,1.083283 -1.36397,4.750388 -0.15333,5.754089 1.10123,0.912978 3.12003,0.785531 4.45873,0.616129 4.36971,-0.55297 4.11848,-7.816157 -0.26459,-7.247054 m 147.902086,5.443966 c -1.068022,-1.480546 -4.545345,-3.961595 -6.500862,-2.638485 -0.822754,0.556684 -0.907568,2.027686 -1.178804,2.903069 -0.816633,2.635514 -3.155621,5.906793 -2.836713,8.731035 0.493203,4.36784 4.765875,2.25014 6.494952,0.4171 0.896505,-0.95041 1.246871,-2.20085 1.867392,-3.327302 1.06074,-1.925609 1.106102,-4.195287 2.154035,-6.085417 M -200.39085,83.780631 c 0.0227,8.2157 -3.87135,15.2949 -6.18423,23.018749 -0.52356,1.74842 -3.00542,6.72175 -5.44703,5.91414 -2.73463,-0.90455 -1.93418,-6.55735 -1.32291,-8.55997 1.15019,-3.76825 3.17288,-9.260179 5.5736,-12.385599 0.87354,-1.13724 2.31745,-1.55491 3.23196,-2.69974 1.38471,-1.73345 2.13552,-4.19314 4.14861,-5.28758 m 44.44999,0 c 0.6149,2.08101 -0.1622,4.28821 -0.58183,6.35 -1.16817,5.73969 -3.45657,11.496569 -5.6226,16.933329 -0.62424,1.56686 -3.17644,6.46594 -5.43315,5.71325 -2.88978,-0.96386 -1.97776,-6.53936 -1.2484,-8.62366 1.36397,-3.89789 3.16757,-9.021839 5.56993,-12.379079 0.81459,-1.13838 2.27392,-1.58188 3.16725,-2.70626 1.38588,-1.74435 2.19427,-4.09597 4.1488,-5.28758 m 121.443758,10.84792 c 1.190802,2.01162 0.0105,3.80138 -0.657793,5.797159 -1.650287,4.92841 -4.078062,9.32997 -6.221374,14.04659 h -0.529166 c -1.367601,-4.75994 2.435397,-10.69202 4.401959,-14.816669 0.801728,-1.68155 1.588146,-3.79363 3.006374,-5.02708 m -92.339588,4.05694 c 0.20464,0 0.0424,0.13174 -0.0882,0.0882 l 0.0882,-0.0882 m 41.539585,0.70556 v 5.820829 c -2.12272,-1.16484 -2.75357,-5.02431 0,-5.820829 m -47.360415,34.924989 c 0,-11.22615 4.16872,-21.93041 5.02708,-33.07291 1.70776,0.39058 3.21268,1.55262 5.02708,1.56544 3.61317,0.0255 5.9961,-3.161629 9.01605,0.57879 2.24441,2.77986 -0.47686,6.3761 -2.03114,8.96827 -3.24883,5.41831 -6.81268,10.4159 -10.72991,15.3695 -1.83728,2.32338 -3.61585,5.19371 -6.30916,6.59091 m 75.670835,-23.01874 c -0.89397,-0.62729 -2.41999,-2.75418 -1.38987,-3.80788 0.90996,-0.93077 1.87807,0.20787 1.8241,1.16327 -0.0501,0.88614 -0.3614,1.7529 -0.43423,2.64461 m 4.7625,-3.175 -0.26458,0.26458 0.26458,-0.26458 m -12.17083,0.79375 c 0.27997,2.07918 0.94815,4.20108 2.45004,5.74122 0.80388,0.82433 2.84199,1.44832 2.92267,2.73688 0.18095,2.88981 -3.05226,7.46876 -4.56264,9.77814 -0.44692,0.68336 -1.67979,3.01556 -2.77853,2.18629 -1.04161,-0.78618 -0.93655,-3.6601 -0.94175,-4.83212 -0.0142,-3.21256 0.7412,-6.36049 1.2096,-9.525 0.30147,-2.03676 0.42564,-4.38103 1.70061,-6.08541 z"
       id="path2" /></g></svg>
